<svg xmlns="http://www.w3.org/2000/svg" viewBox="0 0 1200 1100" fill="none">
  <defs>
    <linearGradient id="cgf" x1="0" y1="0" x2="0" y2="1">
      <stop offset="0%" stop-color="#818CF8" stop-opacity="0.25"/>
      <stop offset="100%" stop-color="#818CF8" stop-opacity="0"/>
    </linearGradient>
  </defs>

  <rect width="1200" height="1100" fill="#08090C"/>

  <!-- Sidebar -->
  <rect width="56" height="1100" fill="#0A0B10"/>
  <rect x="55" width="1" height="1100" fill="rgba(255,255,255,0.06)"/>
  <rect x="12" y="16" width="32" height="32" rx="6" fill="rgba(129,140,248,0.1)"/>
  <rect x="20" y="24" width="16" height="4" rx="1" fill="#818CF8"/>
  <rect x="16" y="60" width="24" height="1" fill="rgba(255,255,255,0.06)"/>
  <rect x="12" y="112" width="32" height="32" rx="6" fill="rgba(129,140,248,0.15)"/>
  <rect x="22" y="122" width="12" height="12" rx="2" fill="#818CF8"/>

  <!-- Header -->
  <rect x="56" width="1144" height="56" fill="rgba(0,0,0,0.2)"/>
  <rect x="56" y="55" width="1144" height="1" fill="rgba(255,255,255,0.06)"/>
  <text x="88" y="28" fill="#F7F8FA" font-family="system-ui" font-size="14" font-weight="600">Portfolio — Full View</text>
  <text x="88" y="44" fill="rgba(255,255,255,0.38)" font-family="system-ui" font-size="11">Terminal grid — assets, trades, and strategy</text>

  <!-- Hero stats -->
  <text x="88" y="90" fill="rgba(255,255,255,0.38)" font-family="system-ui" font-size="10" letter-spacing="0.12em">PORTFOLIO VALUE</text>
  <text x="88" y="118" fill="#F7F8FA" font-family="system-ui" font-size="36" font-weight="600">$124,580</text>
  <text x="300" y="118" fill="#34D399" font-family="system-ui" font-size="13" font-weight="500">+2.4%</text>

  <rect x="380" y="88" width="1" height="32" fill="rgba(255,255,255,0.06)"/>
  <text x="400" y="90" fill="rgba(255,255,255,0.38)" font-family="system-ui" font-size="10">TODAY</text>
  <text x="400" y="114" fill="#34D399" font-family="system-ui" font-size="15" font-weight="600">+$1,247</text>

  <rect x="500" y="88" width="1" height="32" fill="rgba(255,255,255,0.06)"/>
  <text x="520" y="90" fill="rgba(255,255,255,0.38)" font-family="system-ui" font-size="10">RETURN</text>
  <text x="520" y="114" fill="#F7F8FA" font-family="system-ui" font-size="15" font-weight="600">+12.4%</text>

  <rect x="620" y="88" width="1" height="32" fill="rgba(255,255,255,0.06)"/>
  <text x="640" y="90" fill="rgba(255,255,255,0.38)" font-family="system-ui" font-size="10">ANNUALIZED</text>
  <text x="640" y="114" fill="#F7F8FA" font-family="system-ui" font-size="15" font-weight="600">18.2%</text>

  <rect x="760" y="88" width="1" height="32" fill="rgba(255,255,255,0.06)"/>
  <text x="780" y="90" fill="rgba(255,255,255,0.38)" font-family="system-ui" font-size="10">SHARPE</text>
  <text x="780" y="114" fill="#F7F8FA" font-family="system-ui" font-size="15" font-weight="600">1.42</text>

  <rect x="870" y="88" width="1" height="32" fill="rgba(255,255,255,0.06)"/>
  <text x="890" y="90" fill="rgba(255,255,255,0.38)" font-family="system-ui" font-size="10">WIN RATE</text>
  <text x="890" y="114" fill="#F7F8FA" font-family="system-ui" font-size="15" font-weight="600">72%</text>

  <!-- Large chart card -->
  <rect x="88" y="140" width="1024" height="380" rx="12" fill="rgba(255,255,255,0.03)" stroke="rgba(255,255,255,0.06)" stroke-width="1"/>

  <!-- Chart overlay pills -->
  <rect x="104" y="156" width="110" height="26" rx="13" fill="rgba(255,255,255,0.04)" stroke="rgba(255,255,255,0.06)" stroke-width="1"/>
  <text x="116" y="173" fill="rgba(255,255,255,0.5)" font-family="system-ui" font-size="10">Best</text>
  <text x="146" y="173" fill="#34D399" font-family="system-ui" font-size="10" font-weight="600">+6.2%</text>

  <rect x="222" y="156" width="120" height="26" rx="13" fill="rgba(255,255,255,0.04)" stroke="rgba(255,255,255,0.06)" stroke-width="1"/>
  <text x="234" y="173" fill="rgba(255,255,255,0.5)" font-family="system-ui" font-size="10">Worst</text>
  <text x="270" y="173" fill="#F87171" font-family="system-ui" font-size="10" font-weight="600">-4.3%</text>

  <rect x="350" y="156" width="100" height="26" rx="13" fill="rgba(255,255,255,0.04)" stroke="rgba(255,255,255,0.06)" stroke-width="1"/>
  <text x="362" y="173" fill="rgba(255,255,255,0.5)" font-family="system-ui" font-size="10">Beta</text>
  <text x="386" y="173" fill="#67E8F9" font-family="system-ui" font-size="10" font-weight="600">0.87</text>

  <!-- Grid lines -->
  <line x1="120" y1="210" x2="1090" y2="210" stroke="rgba(255,255,255,0.03)" stroke-width="1"/>
  <line x1="120" y1="270" x2="1090" y2="270" stroke="rgba(255,255,255,0.03)" stroke-width="1"/>
  <line x1="120" y1="330" x2="1090" y2="330" stroke="rgba(255,255,255,0.03)" stroke-width="1"/>
  <line x1="120" y1="390" x2="1090" y2="390" stroke="rgba(255,255,255,0.03)" stroke-width="1"/>
  <line x1="120" y1="450" x2="1090" y2="450" stroke="rgba(255,255,255,0.03)" stroke-width="1"/>

  <!-- Y labels -->
  <text x="108" y="214" fill="rgba(255,255,255,0.25)" font-family="system-ui" font-size="10">$130k</text>
  <text x="108" y="274" fill="rgba(255,255,255,0.25)" font-family="system-ui" font-size="10">$120k</text>
  <text x="108" y="334" fill="rgba(255,255,255,0.25)" font-family="system-ui" font-size="10">$110k</text>
  <text x="108" y="394" fill="rgba(255,255,255,0.25)" font-family="system-ui" font-size="10">$100k</text>

  <!-- Chart fill + line -->
  <path d="M150,440 L250,425 L350,445 L450,395 L550,375 L650,385 L750,345 L850,360 L950,325 L1050,305 L1050,470 L150,470 Z" fill="url(#cgf)"/>
  <path d="M150,440 L250,425 L350,445 L450,395 L550,375 L650,385 L750,345 L850,360 L950,325 L1050,305" stroke="#818CF8" stroke-width="2" stroke-linecap="round" stroke-linejoin="round" fill="none"/>
  <circle cx="1050" cy="305" r="4" fill="#08090C" stroke="#818CF8" stroke-width="2"/>

  <!-- 3-column grid: Assets | Allocation | Trades -->
  <!-- Assets card -->
  <rect x="88" y="540" width="328" height="260" rx="12" fill="rgba(255,255,255,0.03)" stroke="rgba(255,255,255,0.06)" stroke-width="1"/>
  <text x="108" y="566" fill="rgba(255,255,255,0.38)" font-family="system-ui" font-size="10" letter-spacing="0.12em">ASSETS HELD</text>
  <text x="370" y="566" fill="rgba(255,255,255,0.25)" font-family="system-ui" font-size="10">4 positions</text>

  <text x="108" y="596" fill="#F7F8FA" font-family="system-ui" font-size="13" font-weight="500">VOO</text>
  <text x="160" y="596" fill="rgba(255,255,255,0.38)" font-family="system-ui" font-size="10">Vanguard S&amp;P 500</text>
  <text x="360" y="596" fill="#F7F8FA" font-family="system-ui" font-size="12">$77,231</text>
  <text x="360" y="610" fill="#34D399" font-family="system-ui" font-size="10">+3.2%</text>

  <line x1="108" y1="620" x2="400" y2="620" stroke="rgba(255,255,255,0.03)" stroke-width="1"/>
  <text x="108" y="644" fill="#F7F8FA" font-family="system-ui" font-size="13" font-weight="500">AAPL</text>
  <text x="164" y="644" fill="rgba(255,255,255,0.38)" font-family="system-ui" font-size="10">Apple Inc.</text>
  <text x="360" y="644" fill="#F7F8FA" font-family="system-ui" font-size="12">$22,428</text>
  <text x="360" y="658" fill="#34D399" font-family="system-ui" font-size="10">+1.8%</text>

  <line x1="108" y1="668" x2="400" y2="668" stroke="rgba(255,255,255,0.03)" stroke-width="1"/>
  <text x="108" y="692" fill="#F7F8FA" font-family="system-ui" font-size="13" font-weight="500">MSFT</text>
  <text x="162" y="692" fill="rgba(255,255,255,0.38)" font-family="system-ui" font-size="10">Microsoft Corp.</text>
  <text x="360" y="692" fill="#F7F8FA" font-family="system-ui" font-size="12">$14,947</text>
  <text x="360" y="706" fill="#34D399" font-family="system-ui" font-size="10">+2.1%</text>

  <line x1="108" y1="716" x2="400" y2="716" stroke="rgba(255,255,255,0.03)" stroke-width="1"/>
  <text x="108" y="740" fill="#F7F8FA" font-family="system-ui" font-size="13" font-weight="500">BND</text>
  <text x="148" y="740" fill="rgba(255,255,255,0.38)" font-family="system-ui" font-size="10">Vanguard Total Bond</text>
  <text x="360" y="740" fill="#F7F8FA" font-family="system-ui" font-size="12">$9,964</text>
  <text x="360" y="754" fill="#34D399" font-family="system-ui" font-size="10">+0.3%</text>

  <!-- Allocation card (center column) -->
  <rect x="432" y="540" width="328" height="260" rx="12" fill="rgba(255,255,255,0.03)" stroke="rgba(255,255,255,0.06)" stroke-width="1"/>
  <text x="452" y="566" fill="rgba(255,255,255,0.38)" font-family="system-ui" font-size="10" letter-spacing="0.15em">ALLOCATION</text>

  <!-- Donut -->
  <circle cx="596" cy="650" r="65" fill="none" stroke="#818CF8" stroke-width="24" stroke-dasharray="252 408" stroke-dashoffset="0" transform="rotate(-90 596 650)"/>
  <circle cx="596" cy="650" r="65" fill="none" stroke="#67E8F9" stroke-width="24" stroke-dasharray="74 334" stroke-dashoffset="-252" transform="rotate(-90 596 650)"/>
  <circle cx="596" cy="650" r="65" fill="none" stroke="#34D399" stroke-width="24" stroke-dasharray="49 309" stroke-dashoffset="-326" transform="rotate(-90 596 650)"/>
  <circle cx="596" cy="650" r="65" fill="none" stroke="#FBBF24" stroke-width="24" stroke-dasharray="33 293" stroke-dashoffset="-375" transform="rotate(-90 596 650)"/>

  <!-- Center label -->
  <text x="596" y="644" text-anchor="middle" fill="#F7F8FA" font-family="system-ui" font-size="18" font-weight="600">$124,580</text>
  <text x="596" y="664" text-anchor="middle" fill="rgba(255,255,255,0.38)" font-family="system-ui" font-size="10">Total</text>

  <!-- Legend -->
  <line x1="452" y1="730" x2="740" y2="730" stroke="rgba(255,255,255,0.06)" stroke-width="1"/>
  <circle cx="464" cy="750" r="3" fill="#818CF8"/>
  <text x="474" y="754" fill="#F7F8FA" font-family="system-ui" font-size="11">VOO</text>
  <text x="560" y="754" fill="rgba(255,255,255,0.7)" font-family="system-ui" font-size="11">$77,240</text>
  <text x="640" y="754" fill="rgba(255,255,255,0.35)" font-family="system-ui" font-size="10">62%</text>

  <circle cx="670" cy="750" r="3" fill="#67E8F9"/>
  <text x="680" y="754" fill="#F7F8FA" font-family="system-ui" font-size="11">AAPL</text>
  <text x="730" y="754" fill="rgba(255,255,255,0.35)" font-family="system-ui" font-size="10">18%</text>

  <circle cx="464" cy="776" r="3" fill="#34D399"/>
  <text x="474" y="780" fill="#F7F8FA" font-family="system-ui" font-size="11">MSFT</text>
  <text x="560" y="780" fill="rgba(255,255,255,0.7)" font-family="system-ui" font-size="11">$14,950</text>
  <text x="640" y="780" fill="rgba(255,255,255,0.35)" font-family="system-ui" font-size="10">12%</text>

  <circle cx="670" cy="776" r="3" fill="#FBBF24"/>
  <text x="680" y="780" fill="#F7F8FA" font-family="system-ui" font-size="11">BND</text>
  <text x="730" y="780" fill="rgba(255,255,255,0.35)" font-family="system-ui" font-size="10">8%</text>

  <!-- Trades card -->
  <rect x="776" y="540" width="336" height="260" rx="12" fill="rgba(255,255,255,0.03)" stroke="rgba(255,255,255,0.06)" stroke-width="1"/>
  <text x="796" y="566" fill="rgba(255,255,255,0.38)" font-family="system-ui" font-size="10" letter-spacing="0.12em">RECENT TRADES</text>

  <rect x="796" y="584" width="32" height="16" rx="8" fill="rgba(52,211,153,0.1)"/>
  <text x="803" y="596" fill="#34D399" font-family="system-ui" font-size="9" font-weight="600">BUY</text>
  <text x="838" y="596" fill="#F7F8FA" font-family="system-ui" font-size="13">VOO</text>
  <text x="1050" y="596" fill="#F7F8FA" font-family="system-ui" font-size="13">$2,261</text>

  <rect x="796" y="616" width="36" height="16" rx="8" fill="rgba(248,113,113,0.1)"/>
  <text x="803" y="628" fill="#F87171" font-family="system-ui" font-size="9" font-weight="600">SELL</text>
  <text x="842" y="628" fill="#F7F8FA" font-family="system-ui" font-size="13">AAPL</text>
  <text x="1050" y="628" fill="#F7F8FA" font-family="system-ui" font-size="13">$1,985</text>

  <rect x="796" y="648" width="32" height="16" rx="8" fill="rgba(52,211,153,0.1)"/>
  <text x="803" y="660" fill="#34D399" font-family="system-ui" font-size="9" font-weight="600">BUY</text>
  <text x="838" y="660" fill="#F7F8FA" font-family="system-ui" font-size="13">MSFT</text>
  <text x="1050" y="660" fill="#F7F8FA" font-family="system-ui" font-size="13">$1,245</text>

  <rect x="796" y="680" width="32" height="16" rx="8" fill="rgba(52,211,153,0.1)"/>
  <text x="803" y="692" fill="#34D399" font-family="system-ui" font-size="9" font-weight="600">BUY</text>
  <text x="838" y="692" fill="#F7F8FA" font-family="system-ui" font-size="13">BND</text>
  <text x="1050" y="692" fill="#F7F8FA" font-family="system-ui" font-size="13">$1,442</text>

  <rect x="796" y="712" width="36" height="16" rx="8" fill="rgba(248,113,113,0.1)"/>
  <text x="803" y="724" fill="#F87171" font-family="system-ui" font-size="9" font-weight="600">SELL</text>
  <text x="842" y="724" fill="#F7F8FA" font-family="system-ui" font-size="13">TSLA</text>
  <text x="1050" y="724" fill="#F7F8FA" font-family="system-ui" font-size="13">$490</text>

  <!-- Strategy section -->
  <rect x="88" y="820" width="1024" height="150" rx="12" fill="rgba(255,255,255,0.03)" stroke="rgba(255,255,255,0.06)" stroke-width="1"/>
  <text x="108" y="846" fill="rgba(255,255,255,0.38)" font-family="system-ui" font-size="10" letter-spacing="0.12em">INVESTMENT STRATEGY</text>
  <text x="108" y="876" fill="#F7F8FA" font-family="system-ui" font-size="14" font-weight="500">Growth-focused</text>
  <text x="108" y="898" fill="rgba(255,255,255,0.38)" font-family="system-ui" font-size="11">80% equities tilted toward US large-cap via VOO. Individual stock positions in AAPL</text>
  <text x="108" y="916" fill="rgba(255,255,255,0.38)" font-family="system-ui" font-size="11">and MSFT for sector concentration. 8% bond allocation for stability.</text>

  <!-- Strategy bars -->
  <text x="700" y="858" fill="rgba(255,255,255,0.25)" font-family="system-ui" font-size="9">RISK LEVEL</text>
  <text x="830" y="858" fill="rgba(255,255,255,0.7)" font-family="system-ui" font-size="10">Moderate</text>
  <rect x="700" y="864" width="200" height="6" rx="3" fill="rgba(255,255,255,0.04)"/>
  <rect x="700" y="864" width="110" height="6" rx="3" fill="rgba(129,140,248,0.6)"/>

  <text x="700" y="894" fill="rgba(255,255,255,0.25)" font-family="system-ui" font-size="9">REBALANCE</text>
  <text x="830" y="894" fill="rgba(255,255,255,0.7)" font-family="system-ui" font-size="10">Quarterly</text>
  <rect x="700" y="900" width="200" height="6" rx="3" fill="rgba(255,255,255,0.04)"/>
  <rect x="700" y="900" width="50" height="6" rx="3" fill="rgba(129,140,248,0.6)"/>

  <text x="700" y="930" fill="rgba(255,255,255,0.25)" font-family="system-ui" font-size="9">DRAWDOWN LIMIT</text>
  <text x="830" y="930" fill="rgba(255,255,255,0.7)" font-family="system-ui" font-size="10">-15%</text>
  <rect x="700" y="936" width="200" height="6" rx="3" fill="rgba(255,255,255,0.04)"/>
  <rect x="700" y="936" width="150" height="6" rx="3" fill="rgba(129,140,248,0.6)"/>
</svg>
